<?xml version="1.0" standalone="no"?>
<!DOCTYPE svg PUBLIC "-//W3C//DTD SVG 20010904//EN"
 "http://www.w3.org/TR/2001/REC-SVG-20010904/DTD/svg10.dtd">
<svg version="1.0" xmlns="http://www.w3.org/2000/svg"
 width="260.000000pt" height="260.000000pt" viewBox="0 0 260.000000 260.000000"
 preserveAspectRatio="xMidYMid meet">
<metadata>
Created by potrace 1.11, written by Peter Selinger 2001-2013
</metadata>
<g transform="translate(0.000000,260.000000) scale(0.100000,-0.100000)"
fill="#000000" stroke="none">
<path d="M760 1947 c-3 -3 -21 -8 -40 -11 -152 -24 -317 -144 -393 -286 -53
-99 -70 -169 -71 -295 -1 -127 5 -170 34 -248 86 -229 294 -355 594 -361 115
-3 240 11 322 35 57 17 73 48 80 153 4 69 4 70 -13 46 -42 -61 -119 -126 -173
-144 -75 -26 -235 -31 -315 -10 -195 51 -334 200 -379 406 -91 416 154 705
544 642 76 -12 146 -35 188 -62 27 -17 82 -120 82 -154 1 -20 2 -21 10 -7 10
18 28 182 22 210 -3 15 -119 53 -227 74 -43 8 -259 18 -265 12z"/>
<path d="M1404 1887 c21 -28 21 -39 24 -515 2 -268 0 -501 -3 -519 -3 -18 -17
-46 -30 -62 l-25 -29 120 0 c111 1 118 2 101 17 -42 37 -45 57 -47 294 l-2
227 92 0 91 0 70 -107 c234 -357 331 -441 530 -459 59 -5 60 -5 31 11 -55 30
-161 109 -194 144 -76 82 -331 445 -321 456 2 2 32 23 66 48 81 60 125 143
125 239 1 125 -60 209 -191 260 -50 19 -76 21 -257 22 l-201 1 21 -28z m380
-51 c66 -32 106 -86 121 -164 28 -134 -13 -244 -107 -294 -34 -18 -64 -23
-149 -26 l-106 -4 0 252 c0 292 -9 269 115 265 54 -2 86 -9 126 -29z"/>
</g>
</svg>
